<svg width="48" height="48" viewBox="0 0 48 48" fill="none" xmlns="http://www.w3.org/2000/svg">
<rect x="0.5" y="0.5" width="47" height="47" rx="23.5" fill="#F5EBD7"/>
<path d="M23.6244 11.25C17.5557 11.2492 12.3824 15.6267 11.4107 21.5848C10.4391 27.543 13.956 33.3225 19.7138 35.2296C20.334 35.3406 20.556 34.9619 20.556 34.6363C20.556 34.3439 20.546 33.5692 20.5423 32.5392C17.1006 33.2793 16.3738 30.8886 16.3738 30.8886C16.1472 30.1448 15.6601 29.5062 15.0008 29.0888C13.8846 28.3253 15.0864 28.3425 15.0864 28.3425C15.881 28.4508 16.5803 28.9192 16.9803 29.6106C17.3188 30.2229 17.8891 30.6752 18.5645 30.8672C19.2399 31.0592 19.9644 30.975 20.577 30.6333C20.6346 30.0091 20.9138 29.4257 21.3646 28.9877C18.6187 28.6781 15.7313 27.6221 15.7313 22.9061C15.7161 21.6864 16.1715 20.5072 17.0038 19.6112C16.6272 18.5495 16.6716 17.3849 17.1279 16.3546C17.1279 16.3546 18.166 16.0227 20.5287 17.6141C22.5551 17.0614 24.6937 17.0614 26.7201 17.6141C29.084 16.0215 30.1209 16.3546 30.1209 16.3546C30.5793 17.3844 30.6237 18.5498 30.2449 19.6112C31.0804 20.5071 31.5354 21.6893 31.5149 22.9111C31.5149 27.6394 28.6251 28.6781 25.8692 28.9828C26.4637 29.5873 26.7687 30.4165 26.7064 31.2599C26.7064 32.9055 26.6915 34.2329 26.6915 34.6363C26.6915 34.9656 26.9123 35.348 27.5436 35.2271C33.2991 33.3168 36.8123 27.537 35.8385 21.5804C34.8649 15.6239 29.6919 11.2486 23.6244 11.25Z" fill="#37474F"/>
<rect x="0.5" y="0.5" width="47" height="47" rx="23.5" stroke="#133834"/>
</svg>
