<svg width="48" height="48" viewBox="0 0 48 48" fill="none" xmlns="http://www.w3.org/2000/svg">
<rect x="0.5" y="0.5" width="47" height="47" rx="23.5" fill="#F5EBD7"/>
<path d="M23.6004 36C20.2245 36 19.8266 35.9822 18.5092 35.9245C17.4819 35.8908 16.4679 35.6819 15.5109 35.307C13.855 34.6626 12.5456 33.3528 11.9018 31.6966C11.5413 30.736 11.3469 29.7212 11.3268 28.6955C11.25 27.3809 11.25 26.95 11.25 23.6003C11.25 20.2149 11.2678 19.8197 11.3268 18.5092C11.3473 17.4849 11.5418 16.4714 11.9018 15.5122C12.5449 13.8539 13.8564 12.5429 15.515 11.9004C16.4737 11.5385 17.4874 11.3435 18.512 11.3241C19.8225 11.25 20.2534 11.25 23.6004 11.25C27.0036 11.25 27.3947 11.2678 28.6914 11.3241C29.7186 11.3437 30.735 11.5386 31.6967 11.9004C33.3548 12.5436 34.666 13.8544 35.3098 15.5122C35.6764 16.4854 35.8718 17.5147 35.8875 18.5545C35.9644 19.8691 35.9644 20.2987 35.9644 23.647C35.9644 26.9953 35.9452 27.4344 35.8875 28.7339C35.8671 29.7606 35.6721 30.7764 35.3112 31.7378C34.6657 33.395 33.3544 34.7054 31.6967 35.3496C30.7364 35.7094 29.7221 35.9038 28.6969 35.9245C27.3864 36 26.9569 36 23.6004 36ZM23.5537 13.4223C20.1971 13.4223 19.8486 13.4387 18.538 13.4978C17.7558 13.5081 16.9812 13.6525 16.2478 13.9245C15.1647 14.339 14.3077 15.1925 13.8888 16.2738C13.6147 17.0153 13.4703 17.7984 13.4621 18.5888C13.3893 19.9185 13.3893 20.2671 13.3893 23.6003C13.3893 26.8937 13.4017 27.293 13.4621 28.6145C13.4744 29.397 13.6187 30.1718 13.8888 30.9062C14.3083 31.9868 15.1652 32.8397 16.2478 33.2541C16.9807 33.528 17.7557 33.6724 18.538 33.6809C19.8664 33.7577 20.2163 33.7577 23.5537 33.7577C26.9199 33.7577 27.2684 33.7413 28.5679 33.6809C29.3507 33.6714 30.1259 33.5271 30.8596 33.2541C31.936 32.8361 32.7875 31.9852 33.2062 30.9089C33.4798 30.167 33.624 29.3834 33.6329 28.5926H33.648C33.707 27.2807 33.707 26.9308 33.707 23.5783C33.707 20.2259 33.6919 19.8733 33.6329 18.5627C33.6206 17.7812 33.4762 17.0073 33.2062 16.2738C32.7884 15.196 31.9368 14.3435 30.8596 13.9245C30.126 13.6511 29.3507 13.5067 28.5679 13.4978C27.241 13.4223 26.8938 13.4223 23.5537 13.4223ZM23.6004 29.9387C21.0341 29.9404 18.7198 28.3959 17.7365 26.0258C16.7532 23.6555 17.2947 20.9262 19.1084 19.1109C20.9221 17.2956 23.6509 16.7518 26.022 17.733C28.3931 18.7142 29.9395 21.0273 29.9402 23.5934C29.9363 27.0942 27.101 29.9319 23.6004 29.9387ZM23.6004 19.4739C21.3267 19.4739 19.4835 21.3171 19.4835 23.5907C19.4835 25.8644 21.3267 27.7075 23.6004 27.7075C25.8739 27.7075 27.7171 25.8644 27.7171 23.5907C27.7118 21.3192 25.8717 19.4792 23.6004 19.4739ZM30.1872 18.4955C29.3713 18.4925 28.7119 17.8294 28.7134 17.0135C28.7149 16.1976 29.3767 15.5369 30.1927 15.5369C31.0085 15.5369 31.6703 16.1976 31.672 17.0135C31.6722 17.4071 31.5158 17.7847 31.2372 18.0628C30.9587 18.3409 30.5808 18.4966 30.1872 18.4955Z" fill="#37474F"/>
<rect x="0.5" y="0.5" width="47" height="47" rx="23.5" stroke="#133834"/>
</svg>
