<svg width="48" height="48" viewBox="0 0 48 48" fill="none" xmlns="http://www.w3.org/2000/svg">
<rect x="0.5" y="0.5" width="47" height="47" rx="23.5" fill="#F5EBD7"/>
<path d="M26.5 35.25H21V18.75H26.5V21.5C27.6723 20.0085 29.4502 19.1193 31.3469 19.0759C34.7577 19.0948 37.5099 21.8704 37.5 25.2812V35.25H32V25.9687C31.78 24.4323 30.4625 23.2924 28.9104 23.2957C28.2315 23.3172 27.5906 23.6145 27.1358 24.1188C26.6809 24.6233 26.4513 25.2913 26.5 25.9687V35.25ZM18.25 35.25H12.75V18.75H18.25V35.25ZM15.5 16C13.9812 16 12.75 14.7688 12.75 13.25C12.75 11.7312 13.9812 10.5 15.5 10.5C17.0188 10.5 18.25 11.7312 18.25 13.25C18.25 13.9793 17.9603 14.6788 17.4445 15.1945C16.9288 15.7103 16.2293 16 15.5 16Z" fill="#37474F"/>
<rect x="0.5" y="0.5" width="47" height="47" rx="23.5" stroke="#133834"/>
</svg>
