<svg width="48" height="48" viewBox="0 0 48 48" fill="none" xmlns="http://www.w3.org/2000/svg">
<rect x="0.5" y="0.5" width="47" height="47" rx="23.5" fill="#F5EBD7"/>
<path d="M15.4835 35.9997C15.2419 36.0036 15.0018 35.9634 14.7755 35.8814L26.1805 24.7945L29.9557 28.4672L16.85 35.6227C16.4348 35.8593 15.9646 35.989 15.4835 35.9997ZM13.8352 35.0847C13.6033 34.6767 13.488 34.2158 13.501 33.7499V13.515C13.4991 13.2078 13.5469 12.9023 13.6426 12.6095L25.3011 23.9413L13.8309 35.0874L13.8352 35.0847ZM31.0815 27.8493L27.0584 23.9427L31.495 19.633L35.4359 21.7837C36.1924 22.1127 36.6985 22.8225 36.75 23.6262C36.6987 24.4309 36.1919 25.1414 35.4345 25.4701L31.0815 27.8493ZM26.1805 23.0841L14.3705 11.6092C14.6947 11.3762 15.0873 11.2503 15.4906 11.25C15.9668 11.2664 16.4315 11.3974 16.8429 11.6312L30.3678 19.0179L26.1819 23.0841H26.1805Z" fill="#37474F"/>
<rect x="0.5" y="0.5" width="47" height="47" rx="23.5" stroke="#133834"/>
</svg>
