<svg width="48" height="48" viewBox="0 0 48 48" fill="none" xmlns="http://www.w3.org/2000/svg">
<rect x="0.5" y="0.5" width="47" height="47" rx="23.5" fill="#F5EBD7"/>
<path fill-rule="evenodd" clip-rule="evenodd" d="M16.25 14.25V32.25H24.875C25.1734 32.25 25.4595 32.3685 25.6705 32.5795C25.8815 32.7905 26 33.0766 26 33.375C26 33.6734 25.8815 33.9595 25.6705 34.1705C25.4595 34.3815 25.1734 34.5 24.875 34.5H15.5C15.1022 34.5 14.7206 34.342 14.4393 34.0607C14.158 33.7794 14 33.3978 14 33V13.5C14 13.1022 14.158 12.7206 14.4393 12.4393C14.7206 12.158 15.1022 12 15.5 12H25.466C25.6675 11.9998 25.867 12.0402 26.0526 12.1188C26.2381 12.1974 26.4059 12.3126 26.546 12.4575L31.5785 17.6715C31.8489 17.9512 32 18.325 32 18.714V19.875C31.9999 20.0307 31.9676 20.1846 31.9049 20.3271C31.8423 20.4696 31.7508 20.5976 31.6362 20.7029C31.5215 20.8082 31.3863 20.8886 31.239 20.939C31.0917 20.9893 30.9356 21.0086 30.7805 20.9955C30.7496 20.9983 30.7185 20.9998 30.6875 21H25.625C24.9288 21 24.2611 20.7234 23.7688 20.2312C23.2766 19.7389 23 19.0712 23 18.375V14.25H16.25ZM25.25 14.355L29.492 18.75H25.625C25.5255 18.75 25.4302 18.7105 25.3598 18.6402C25.2895 18.5698 25.25 18.4745 25.25 18.375V14.355ZM34.7795 32.697L31.25 36L27.7205 32.697C27.2495 32.2545 27.584 31.5 28.25 31.5H30.125V27H28.25C27.584 27 27.2495 26.2455 27.7205 25.803L31.25 22.5L34.7795 25.803C35.2505 26.2455 34.916 27 34.25 27H32.375V31.5H34.25C34.916 31.5 35.2505 32.2545 34.7795 32.697Z" fill="#37474F"/>
<rect x="0.5" y="0.5" width="47" height="47" rx="23.5" stroke="#133834"/>
</svg>
