<svg width="24" height="24" viewBox="0 0 24 24" fill="none" xmlns="http://www.w3.org/2000/svg">
<path d="M21 10.5H13.5V9H21V10.5ZM18 15H13.5V13.5H18V15ZM24 3V21H0V3H24ZM22.5 4.5H1.5V19.5H22.5V4.5ZM7.5 13.5C7.08594 13.5 6.69922 13.5781 6.33984 13.7344C5.98047 13.8906 5.66016 14.1055 5.37891 14.3789C5.09766 14.6523 4.88281 14.9688 4.73438 15.3281C4.58594 15.6875 4.50781 16.0781 4.5 16.5H3C3 16.0937 3.05469 15.6992 3.16406 15.3164C3.27344 14.9336 3.42578 14.5703 3.62109 14.2266C3.81641 13.8828 4.05859 13.5703 4.34766 13.2891C4.63672 13.0078 4.96094 12.7656 5.32031 12.5625C5.0625 12.2891 4.86328 11.9727 4.72266 11.6133C4.58203 11.2539 4.50781 10.8828 4.5 10.5C4.5 10.0859 4.57813 9.69922 4.73438 9.33984C4.89062 8.98047 5.10547 8.66016 5.37891 8.37891C5.65234 8.09766 5.96875 7.88281 6.32812 7.73438C6.6875 7.58594 7.07812 7.50781 7.5 7.5C7.91406 7.5 8.30078 7.57813 8.66016 7.73438C9.01953 7.89062 9.33984 8.10547 9.62109 8.37891C9.90234 8.65234 10.1172 8.96875 10.2656 9.32812C10.4141 9.6875 10.4922 10.0781 10.5 10.5C10.5 10.8828 10.4297 11.2539 10.2891 11.6133C10.1484 11.9727 9.94531 12.2891 9.67969 12.5625C10.0391 12.7656 10.3594 13.0078 10.6406 13.2891C10.9219 13.5703 11.1641 13.8789 11.3672 14.2148C11.5703 14.5508 11.7266 14.9141 11.8359 15.3047C11.9453 15.6953 12 16.0937 12 16.5H10.5C10.5 16.0859 10.4219 15.6992 10.2656 15.3398C10.1094 14.9805 9.89453 14.6602 9.62109 14.3789C9.34766 14.0977 9.03125 13.8828 8.67188 13.7344C8.3125 13.5859 7.92188 13.5078 7.5 13.5ZM6 10.5C6 10.7109 6.03906 10.9063 6.11719 11.0859C6.19531 11.2656 6.30078 11.4219 6.43359 11.5547C6.56641 11.6875 6.72656 11.7969 6.91406 11.8828C7.10156 11.9688 7.29687 12.0078 7.5 12C7.71094 12 7.90625 11.9609 8.08594 11.8828C8.26562 11.8047 8.42188 11.6992 8.55469 11.5664C8.6875 11.4336 8.79687 11.2734 8.88281 11.0859C8.96875 10.8984 9.00781 10.7031 9 10.5C9 10.2891 8.96094 10.0937 8.88281 9.91406C8.80469 9.73438 8.69922 9.57812 8.56641 9.44531C8.43359 9.3125 8.27344 9.20313 8.08594 9.11719C7.89844 9.03125 7.70313 8.99219 7.5 9C7.28906 9 7.09375 9.03906 6.91406 9.11719C6.73438 9.19531 6.57812 9.30078 6.44531 9.43359C6.3125 9.56641 6.20313 9.72656 6.11719 9.91406C6.03125 10.1016 5.99219 10.2969 6 10.5Z" fill="#37474F"/>
</svg>
