<svg width="48" height="48" viewBox="0 0 48 48" fill="none" xmlns="http://www.w3.org/2000/svg">
<rect x="0.5" y="0.5" width="47" height="47" rx="23.5" fill="#F5EBD7"/>
<path d="M24.8 20.4H31.4L24.8 13.8V20.4ZM16.4 12H26L33.2 19.2V33.6C33.2 34.2365 32.9471 34.847 32.4971 35.2971C32.047 35.7471 31.4365 36 30.8 36H16.4C15.7635 36 15.153 35.7471 14.7029 35.2971C14.2529 34.847 14 34.2365 14 33.6V14.4C14 13.068 15.068 12 16.4 12ZM26 33.6V32.4C26 30.804 22.796 30 21.2 30C19.604 30 16.4 30.804 16.4 32.4V33.6H26ZM21.2 24C20.5635 24 19.953 24.2529 19.5029 24.7029C19.0529 25.153 18.8 25.7635 18.8 26.4C18.8 27.0365 19.0529 27.647 19.5029 28.0971C19.953 28.5471 20.5635 28.8 21.2 28.8C21.8365 28.8 22.447 28.5471 22.8971 28.0971C23.3471 27.647 23.6 27.0365 23.6 26.4C23.6 25.7635 23.3471 25.153 22.8971 24.7029C22.447 24.2529 21.8365 24 21.2 24Z" fill="#37474F"/>
<rect x="0.5" y="0.5" width="47" height="47" rx="23.5" stroke="#133834"/>
</svg>
