<svg width="48" height="48" viewBox="0 0 48 48" fill="none" xmlns="http://www.w3.org/2000/svg">
<rect x="0.5" y="0.5" width="47" height="47" rx="23.5" fill="#F5EBD7"/>
<path d="M23.6403 32.3255H23.6156C23.5389 32.3255 15.8691 32.3107 13.934 31.7852C12.8699 31.4986 12.0389 30.667 11.7528 29.6028C11.4048 27.6398 11.2368 25.6489 11.2508 23.6554C11.2418 21.6584 11.4144 19.6649 11.7664 17.6992C12.0603 16.634 12.8877 15.7987 13.95 15.4946C15.832 15 23.2904 15 23.6069 15H23.6329C23.7108 15 31.4005 15.0148 33.3158 15.5403C34.3777 15.8285 35.207 16.6582 35.4944 17.7203C35.8535 19.6906 36.0221 21.691 35.9977 23.6937C36.0063 25.6881 35.8334 27.6792 35.4808 29.6424C35.1911 30.7053 34.3596 31.5349 33.296 31.8223C31.4165 32.3206 23.9569 32.3255 23.6403 32.3255ZM21.1674 19.9521L21.1612 27.371L27.6057 23.6615L21.1674 19.9521Z" fill="#37474F"/>
<rect x="0.5" y="0.5" width="47" height="47" rx="23.5" stroke="#133834"/>
</svg>
